<svg xmlns="http://www.w3.org/2000/svg" width="40" height="24" viewBox="0 0 40 24" fill="none">
  <path fill-rule="evenodd" clip-rule="evenodd" d="M11.2729 8.71707C11.2626 9.11811 11.3119 9.51846 11.4192 9.90505C11.5374 10.2354 11.6798 10.5566 11.8452 10.8662C11.9047 10.9581 11.937 11.0649 11.9384 11.1744C11.9304 11.2562 11.9034 11.335 11.8596 11.4045C11.8157 11.4741 11.7563 11.5325 11.6859 11.5751L10.8475 12.1355C10.7466 12.2086 10.6263 12.2504 10.5018 12.2557C10.3505 12.2457 10.2083 12.1797 10.103 12.0708C9.92357 11.8773 9.76314 11.6672 9.62387 11.4432C9.49113 11.2163 9.35778 10.9629 9.21146 10.6559C8.74382 11.241 8.14813 11.7112 7.47014 12.0305C6.79215 12.3498 6.04989 12.5098 5.30036 12.498C4.81501 12.5236 4.32946 12.4517 3.87242 12.2866C3.41537 12.1215 2.99612 11.8666 2.63946 11.5369C2.30786 11.2002 2.04929 10.7988 1.87987 10.3579C1.71045 9.91699 1.63381 9.44594 1.65474 8.97414C1.63542 8.45428 1.73431 7.93681 1.944 7.46059C2.15369 6.98437 2.46872 6.56179 2.86542 6.22459C3.78728 5.48996 4.94671 5.118 6.12457 5.17902C6.59646 5.18285 7.06757 5.21848 7.53466 5.28568C8.02856 5.35226 8.53234 5.45891 9.06452 5.57913V4.60569C9.14134 3.83979 8.91709 3.07405 8.43912 2.47016C7.82164 1.99591 7.04593 1.77535 6.27088 1.85367C5.78677 1.85358 5.30441 1.91174 4.83424 2.0269C4.34516 2.14381 3.86505 2.29544 3.3976 2.48064C3.24638 2.54845 3.09088 2.60632 2.9321 2.65388C2.86321 2.67667 2.79157 2.69015 2.7191 2.69395C2.53389 2.69395 2.44005 2.56017 2.44005 2.28028V1.62927C2.42577 1.46781 2.45812 1.30564 2.53327 1.16197C2.63285 1.04059 2.75979 0.944473 2.9037 0.881464C3.43744 0.616598 4.00042 0.415071 4.58112 0.281002C5.25895 0.106345 5.95674 0.0209559 6.65675 0.0270077C8.24032 0.0270077 9.39729 0.387655 10.1419 1.11018C10.5374 1.55534 10.839 2.07551 11.0288 2.63964C11.2185 3.20377 11.2925 3.8003 11.2463 4.39361V8.7183L11.2729 8.71707ZM5.87144 10.7459C6.33815 10.7407 6.80087 10.6595 7.2414 10.5055C7.73015 10.3358 8.16585 10.0412 8.50518 9.65105C8.71979 9.40475 8.87465 9.11236 8.95772 8.79659C9.04905 8.41626 9.09363 8.02623 9.09045 7.63512V7.07473C8.68716 6.97624 8.27863 6.9005 7.86681 6.84787C7.45197 6.795 7.0342 6.76823 6.616 6.76772C5.91331 6.71206 5.21296 6.90067 4.63359 7.3016C4.41306 7.48938 4.23933 7.72586 4.12617 7.99229C4.01301 8.25873 3.96353 8.54782 3.98164 8.83667C3.96131 9.09427 3.99471 9.35328 4.07972 9.59734C4.16473 9.8414 4.29951 10.0652 4.47555 10.2546C4.66147 10.4285 4.88154 10.562 5.12183 10.6466C5.36212 10.7312 5.61738 10.765 5.87144 10.7459ZM16.5521 12.1873C16.3729 12.2056 16.1931 12.158 16.0465 12.0535C15.907 11.9091 15.8103 11.729 15.7668 11.5332L12.6429 1.21499C12.5822 1.04231 12.542 0.863126 12.5231 0.681105C12.5166 0.637085 12.5202 0.592158 12.5337 0.54975C12.5472 0.507342 12.5702 0.468573 12.601 0.436401C12.6318 0.404229 12.6695 0.379504 12.7113 0.364112C12.7532 0.348719 12.7979 0.343066 12.8423 0.347583H14.1462C14.3297 0.325483 14.5149 0.373248 14.6648 0.481362C14.7991 0.627497 14.8911 0.807355 14.9309 1.00168L17.1658 9.83846L19.2414 1.00168C19.2688 0.805937 19.3573 0.623829 19.4945 0.481362C19.6539 0.383222 19.8398 0.33651 20.0267 0.347583H21.0911C21.2787 0.327973 21.4673 0.375368 21.6233 0.481362C21.7624 0.622405 21.8511 0.805257 21.8758 1.00168L23.9748 9.94512L26.2795 1.00168C26.3216 0.807989 26.4133 0.628508 26.5456 0.480745C26.6999 0.382443 26.8815 0.3356 27.0642 0.346967H28.299C28.3442 0.340943 28.3902 0.345432 28.4334 0.360082C28.4766 0.374733 28.5159 0.39915 28.5481 0.431429C28.5803 0.463709 28.6046 0.50298 28.6191 0.546181C28.6336 0.589381 28.6379 0.635345 28.6317 0.680488C28.6286 0.752186 28.6198 0.823519 28.6052 0.893794C28.5842 1.00755 28.553 1.11918 28.512 1.22732L25.3084 11.5468C25.2682 11.7438 25.171 11.9248 25.0287 12.0671C24.8785 12.1638 24.7015 12.2107 24.5231 12.2009H23.3791C23.1914 12.2205 23.0029 12.1731 22.8469 12.0671C22.7079 11.9205 22.6194 11.7335 22.5944 11.5332L20.5323 2.9239L18.4833 11.5203C18.4521 11.7187 18.3644 11.904 18.2308 12.0541C18.074 12.1583 17.8861 12.2055 17.6986 12.1879L16.5521 12.1873ZM33.6473 12.5479C32.9574 12.5486 32.2698 12.4679 31.5989 12.3075C31.0679 12.1995 30.5539 12.0205 30.0709 11.7755C29.8994 11.6944 29.7559 11.5644 29.6584 11.4019C29.6067 11.2841 29.5796 11.1569 29.5788 11.0283V10.3502C29.5788 10.0696 29.685 9.93649 29.8875 9.93649C29.969 9.93675 30.0499 9.95028 30.127 9.97656C30.2073 10.0031 30.3264 10.0567 30.4598 10.1103C30.9295 10.3177 31.42 10.4743 31.923 10.5776C32.4439 10.6838 32.9743 10.7375 33.5059 10.7379C34.1821 10.7777 34.8557 10.6248 35.4482 10.2971C35.6653 10.1654 35.8436 9.97875 35.9651 9.75606C36.0867 9.53336 36.1471 9.28254 36.1403 9.02901C36.1451 8.85726 36.1158 8.68627 36.0541 8.52587C35.9925 8.36547 35.8996 8.21883 35.781 8.09441C35.3916 7.76221 34.9309 7.52405 34.4345 7.39839L32.5033 6.79485C31.6667 6.57911 30.9209 6.10221 30.3746 5.43363C29.9459 4.87887 29.712 4.19859 29.7091 3.49785C29.6986 2.98192 29.8224 2.47211 30.0684 2.01827C30.3055 1.58934 30.6321 1.21619 31.0259 0.924002C31.4408 0.608139 31.9108 0.371925 32.412 0.227367C32.9565 0.0699671 33.5213 -0.00647637 34.0881 0.000498623C34.3862 -0.00160769 34.684 0.016311 34.9796 0.0541333C35.2883 0.0942053 35.5649 0.14784 35.844 0.200858C36.1101 0.267439 36.3626 0.334637 36.6021 0.414164C36.7963 0.474536 36.9835 0.555123 37.1608 0.654596C37.3175 0.733951 37.4539 0.848033 37.5597 0.988117C37.6463 1.11823 37.6883 1.27291 37.6794 1.42891V2.05588C37.6794 2.33638 37.5732 2.48311 37.3707 2.48311C37.1934 2.46286 37.0217 2.40842 36.8651 2.32282C36.0616 1.96647 35.1901 1.78893 34.311 1.8025C33.6983 1.76625 33.0872 1.89529 32.5416 2.1761C32.3383 2.29778 32.1724 2.47297 32.062 2.6825C31.9517 2.89203 31.9013 3.12782 31.9162 3.36407C31.9128 3.54144 31.9468 3.71754 32.016 3.8809C32.0853 4.04427 32.1882 4.19124 32.3181 4.31224C32.7494 4.65594 33.2477 4.90602 33.7813 5.04648L35.6705 5.64694C36.4731 5.85308 37.1929 6.30049 37.7325 6.92863C38.1388 7.46628 38.354 8.12376 38.3443 8.79721C38.3513 9.33325 38.233 9.86352 37.9986 10.3458C37.7628 10.8022 37.4317 11.2027 37.0275 11.5203C36.5891 11.8632 36.0879 12.1174 35.5519 12.2687C34.936 12.4589 34.2945 12.5535 33.6498 12.5492L33.6473 12.5479Z" fill="#252F3E"/>
  <path fill-rule="evenodd" clip-rule="evenodd" d="M36.163 19.0365C31.7864 22.2799 25.4268 24.0017 19.9593 24.0017C12.6495 24.0369 5.59172 21.3364 0.177241 16.4325C-0.235168 16.0589 0.137111 15.5515 0.62978 15.8449C6.65361 19.2994 13.4789 21.1172 20.4254 21.1172C25.6138 21.0893 30.7453 20.0369 35.5247 18.0205C36.2563 17.687 36.8817 18.5014 36.163 19.0365ZM37.9855 16.954C37.4268 16.2333 34.2874 16.6069 32.8613 16.7808C32.4353 16.8344 32.3674 16.4602 32.7551 16.1803C35.2561 14.4184 39.3666 14.9257 39.8457 15.5126C40.3248 16.1131 39.713 20.238 37.3713 22.2133C37.0119 22.5215 36.6662 22.36 36.8261 21.9599C37.3583 20.6382 38.5424 17.6617 37.9837 16.9546L37.9855 16.954Z" fill="#FF9900"/>
</svg>