<svg xmlns="http://www.w3.org/2000/svg" width="32" height="32" viewBox="0 0 32 32" fill="none">
<path d="M16 0C7.17474 0 0 7.17432 0 16V32H16C24.8253 32 32 24.8257 32 16C32 7.17432 24.8257 0 16 0ZM16 29.4737H2.52632V16C2.52632 15.5954 2.55921 15.1908 2.59211 14.7862C2.86184 11.6546 5.35522 9.09213 8.51977 8.89145H8.89148C12.3948 8.89145 15.2237 11.5855 15.3586 15.0888C15.4244 16.5363 15.0231 17.852 14.2797 18.9639C15.0889 19.4343 15.6942 20.0757 16.0297 20.8158C16.4014 20.0757 17.0067 19.4343 17.7796 18.9639C17.0395 17.852 16.6678 16.5395 16.7007 15.0888C16.8685 11.5855 19.6645 8.89145 23.1679 8.89145H23.5396C26.6712 9.05922 29.1646 11.6184 29.4672 14.7862C29.5001 15.1908 29.533 15.5954 29.533 16C29.4738 23.4112 23.4109 29.4737 16 29.4737Z" fill="#A815F3"/>
<path d="M13.0355 15.6298C13.0355 18.416 8.85791 18.416 8.85791 15.6298C8.85791 12.8469 13.0355 12.8469 13.0355 15.6298Z" fill="#A815F3"/>
<path d="M23.1405 15.6298C23.1405 18.416 18.9629 18.416 18.9629 15.6298C18.9629 12.8469 23.1405 12.8469 23.1405 15.6298Z" fill="#A815F3"/>
</svg>