<svg xmlns="http://www.w3.org/2000/svg" width="34" height="40" viewBox="0 0 34 40" fill="none">
  <g clip-path="url(#clip0_99_267)">
    <path d="M2.62573 27.631L2.90623 27.9476L17.075 31.9416L17.1392 29.4659L7.21596 26.9895L6.73037 26.8153L2.62573 27.631Z" fill="#B7CA9D"/>
    <path d="M31.3738 27.631L16.9034 32.4342L16.8604 29.4659L26.7834 26.9896L27.2159 26.5055L31.3738 27.631Z" fill="#B7CA9D"/>
    <path d="M16.8604 10.6635L26.7834 12.9633L31.1475 12.7574L31.3738 12.3225L17.5479 7.37354L16.8604 10.6635Z" fill="#3C4929"/>
    <path d="M7.21602 26.9896L2.62579 27.631L2.49805 27.1571V12.8215L2.62579 12.3225L6.77348 12.6292L7.21602 12.9638V26.9896Z" fill="#759C3E"/>
    <path d="M17.1392 10.6635L7.21596 12.9633L2.62573 12.3225L2.79872 12.0524L17.075 8.0119L17.1392 10.6635Z" fill="#3C4929"/>
    <path d="M16.9801 0.00274658L0.5 8.27481L0.507863 31.6835L16.9801 39.9512L17.2256 39.5806V0.48345L16.9801 0.00274658ZM12.1611 30.4768L2.62579 27.631V12.3225L12.1611 9.47773V30.4768ZM26.7833 26.9895L31.3737 27.631L31.6309 27.1785V12.7574L31.3737 12.3225L26.7833 12.9638V26.9895Z" fill="#4B612C"/>
    <path d="M16.9802 39.9512L33.4922 31.684L33.5001 8.27545L16.9802 0.00274658V39.9512ZM21.8383 9.47773L31.3738 12.3225V27.631L21.8383 30.4768V9.47773Z" fill="#759C3E"/>
  </g>
  <defs>
    <clipPath id="clip0_99_267">
      <rect width="33" height="40" fill="white" transform="translate(0.5)"/>
    </clipPath>
  </defs>
</svg>