<svg xmlns="http://www.w3.org/2000/svg" width="40" height="40" viewBox="0 0 40 40" fill="none">
  <g clip-path="url(#clip0_93_327)">
    <path d="M40 0H0V40H40V0Z" fill="url(#paint0_linear_93_327)"/>
    <path fill-rule="evenodd" clip-rule="evenodd" d="M23.421 16.0995L20.0065 20.06L23.7205 24.392H22.3345L19 20.5V24.5H18V16H19V19.5L22.0905 16.0995H23.421ZM32 24.117L28 21.7165V16C28 15.822 27.906 15.6575 27.752 15.568L22 12.213V7.37601L32 13.2855V24.117ZM32.7545 12.5695L21.7545 6.06951C21.5995 5.97801 21.409 5.97701 21.252 6.06551C21.0965 6.15451 21 6.32051 21 6.50001V12.5C21 12.6775 21.0945 12.842 21.248 12.932L27 16.287V22C27 22.1755 27.0925 22.3385 27.243 22.4285L32.243 25.4285C32.322 25.476 32.411 25.5 32.5 25.5C32.585 25.5 32.67 25.4785 32.7465 25.435C32.9035 25.3465 33 25.18 33 25V13C33 12.823 32.907 12.6595 32.7545 12.5695ZM20.2225 33.4315L8.5 27.1995V13.2855L18.5 7.37601V12.2255L13.2315 15.578C13.0875 15.67 13 15.829 13 16V24.5C13 24.6865 13.104 24.8575 13.269 24.9435L19.9955 28.4435C20.14 28.5185 20.312 28.519 20.456 28.444L26.982 25.072L30.998 27.482L20.2225 33.4315ZM32.2575 27.071L27.2575 24.071C27.1085 23.982 26.9245 23.976 26.7705 24.056L20.2275 27.4365L14 24.1965V16.2745L19.2685 12.922C19.4125 12.83 19.5 12.671 19.5 12.5V6.50001C19.5 6.32051 19.404 6.15451 19.248 6.06551C19.092 5.97701 18.901 5.97801 18.7455 6.06951L7.7455 12.5695C7.5935 12.6595 7.5 12.823 7.5 13V27.5C7.5 27.6845 7.602 27.8545 7.765 27.9415L19.992 34.4415C20.0655 34.4805 20.146 34.5 20.2265 34.5C20.31 34.5 20.393 34.479 20.4685 34.4375L32.242 27.9375C32.3985 27.851 32.4965 27.6875 32.5001 27.509C32.503 27.33 32.4105 27.163 32.2575 27.071Z" fill="white"/>
  </g>
  <defs>
    <linearGradient id="paint0_linear_93_327" x1="0" y1="4000" x2="4000" y2="0" gradientUnits="userSpaceOnUse">
      <stop stop-color="#C8511B"/>
      <stop offset="1" stop-color="#FF9900"/>
    </linearGradient>
    <clipPath id="clip0_93_327">
      <rect width="40" height="40" fill="white"/>
    </clipPath>
  </defs>
</svg>