<svg xmlns="http://www.w3.org/2000/svg" width="40" height="40" viewBox="0 0 40 40" fill="none">
  <path d="M19.2368 9.39751C17.8759 7.35668 17.5818 4.62918 17.5176 3.50834C14.0609 4.25584 10.6268 5.59668 10.8251 6.58418C10.8501 6.70834 11.0068 6.85751 11.2668 7.00251L10.8601 7.73001C10.3634 7.45168 10.0843 7.13084 10.0084 6.74751C9.78425 5.63001 11.0501 4.61918 13.8768 3.65668C15.8068 2.99918 17.7534 2.60668 17.8359 2.59084L18.3334 2.49084V3.00001C18.3334 3.03501 18.3551 6.57334 19.9301 8.93584L19.2368 9.39751Z" fill="#CFD8DC"/>
  <path d="M20.6258 35.8333H20.4167C13.59 35.8333 5.99249 33.6892 5.09499 30.1008C4.54749 27.9092 6.33833 25.4875 10.2733 23.1L10.7067 23.8117C7.16583 25.9608 5.45999 28.1217 5.90416 29.8992C6.68333 33.0142 13.8833 34.9558 20.1983 34.9992C20.9492 33.8767 24.9833 27.2825 22.6808 18.4383L23.4867 18.2283C26.1108 28.305 20.805 35.5925 20.7517 35.665L20.6258 35.8333Z" fill="#CFD8DC"/>
  <path d="M8.27592 32.755C7.82676 32.755 7.60426 32.7058 7.56759 32.6967C7.42092 32.6608 7.30592 32.5483 7.26592 32.4033C7.22509 32.2583 7.26676 32.1025 7.37342 31.9967C7.43342 31.9367 13.3709 25.99 14.1726 21.1817L14.9943 21.3183C14.3051 25.455 10.2318 30.1708 8.61426 31.9075C10.2301 31.815 14.3101 31.0583 22.1426 26.6742C16.0301 26.0042 15.0634 21.1108 15.0534 21.0583L15.8726 20.9075C15.9118 21.1125 16.8943 25.9167 23.5759 25.9167C23.5784 25.9167 23.5801 25.9167 23.5826 25.9167C23.7718 25.9167 23.9359 26.0433 23.9843 26.225C24.0343 26.4067 23.9543 26.5992 23.7918 26.6942C14.4293 32.1183 9.88926 32.7542 8.27592 32.755Z" fill="#CFD8DC"/>
  <path d="M12.1033 34.75C11.9308 34.75 11.7742 34.6433 11.7133 34.4792C11.6475 34.3033 11.7075 34.1042 11.8608 33.9942C11.8892 33.9733 13.3717 32.8792 14.9492 30.4708C14.3425 30.2025 13.7283 29.8892 13.1192 29.5233C12.3792 29.0792 11.82 28.6025 11.4025 28.1142C9.26084 28.6792 7.28417 28.9025 5.54834 28.755L5.61834 27.925C7.18167 28.0575 8.95917 27.8725 10.8858 27.3917C9.57501 25.1517 10.7783 22.9283 10.795 22.8983L11.5233 23.3042C11.4675 23.4058 10.4692 25.2792 11.7308 27.165C13.565 26.6383 15.5217 25.8592 17.5467 24.8467C18.0125 23.3175 18.3767 21.5783 18.5675 19.6167C18.5808 19.4825 18.6575 19.3633 18.7742 19.2958C18.8908 19.2283 19.0333 19.2225 19.1558 19.2783C19.1825 19.2908 21.8758 20.5208 23.8258 21.3233C23.9675 21.3817 24.0658 21.5133 24.0817 21.6658C24.0983 21.8183 24.0292 21.9667 23.9017 22.0533C21.9942 23.3533 20.0992 24.4808 18.2533 25.4217C17.6683 27.2758 16.9442 28.8192 16.2042 30.0808C19.2892 31.2333 21.9667 31.2508 22.0008 31.2508C22.1908 31.2508 22.3567 31.3792 22.4042 31.5633C22.4517 31.7475 22.3692 31.94 22.2033 32.0325C18.42 34.1342 12.3975 34.7258 12.1433 34.75C12.13 34.7492 12.1167 34.75 12.1033 34.75ZM15.7575 30.8058C14.8908 32.1508 14.0392 33.1167 13.4025 33.7475C15.0675 33.5025 17.9867 32.9658 20.4092 31.965C19.2492 31.8225 17.57 31.5058 15.7575 30.8058ZM12.3058 27.8592C12.6333 28.1858 13.0417 28.505 13.5475 28.8092C14.1608 29.1775 14.7833 29.49 15.3975 29.755C16.0258 28.7017 16.6483 27.4375 17.1825 25.9483C15.4983 26.75 13.8633 27.39 12.3058 27.8592ZM19.335 20.2742C19.1642 21.7475 18.9008 23.0917 18.5742 24.3158C19.9575 23.5783 21.3692 22.7358 22.7925 21.7942C21.5017 21.2475 20.0825 20.6117 19.335 20.2742Z" fill="#CFD8DC"/>
  <path d="M14.9368 8.83334C14.8393 8.83334 14.7426 8.79834 14.6659 8.73334C13.3243 7.58501 11.7451 5.24834 11.6784 5.14917C11.5709 4.99001 11.5876 4.77751 11.7168 4.63584C11.8451 4.49334 12.0568 4.46001 12.2234 4.55084C12.2326 4.55334 13.0051 4.87167 18.2376 5.74334C18.3884 5.76834 18.5126 5.87334 18.5626 6.01667C18.6134 6.16001 18.5809 6.32001 18.4793 6.43334C17.0143 8.06084 15.1634 8.77751 15.0851 8.80667C15.0368 8.82417 14.9859 8.83334 14.9368 8.83334ZM13.0393 5.62167C13.5651 6.32917 14.3226 7.28501 15.0159 7.92917C15.4418 7.73501 16.3968 7.24751 17.3026 6.43084C15.1501 6.06334 13.8368 5.80167 13.0393 5.62167Z" fill="#CFD8DC"/>
  <path d="M18.2024 20.3333C18.1458 20.3333 18.0883 20.3217 18.0349 20.2983C17.8691 20.225 17.7691 20.0533 17.7883 19.8733C18.0316 17.5825 14.5166 16.6633 14.4808 16.655C14.3358 16.6183 14.2208 16.5058 14.1816 16.3617C14.1424 16.2175 14.1833 16.0625 14.2891 15.9567C14.4616 15.7842 18.5716 11.7083 23.7283 9.46999C23.8724 9.40749 24.0358 9.43082 24.1574 9.52832C24.2783 9.62666 24.3341 9.78416 24.3024 9.93582C23.3141 14.7225 18.7108 19.9725 18.5158 20.1933C18.4333 20.2842 18.3183 20.3333 18.2024 20.3333ZM15.3791 16.0708C16.3658 16.4417 18.0941 17.3 18.5316 18.8675C19.7391 17.3608 22.3166 13.89 23.2791 10.5892C19.6233 12.3475 16.5449 14.9992 15.3791 16.0708Z" fill="#B71C1C"/>
  <path d="M10.8993 23.6333L10.5034 22.9C12.0726 22.0542 13.8701 20.4975 15.3426 18.6883C14.0893 19.5467 13.3718 20.1342 13.3493 20.1533L12.8168 19.5117C12.8493 19.485 14.2868 18.3058 16.6759 16.8283C17.3318 15.7733 17.8359 14.6883 18.0951 13.6483C18.1393 13.4717 18.1776 13.3008 18.2084 13.1358C16.6043 12.5633 15.1243 12.2242 14.1076 12.0783C13.9534 12.0567 13.8251 11.9508 13.7734 11.805C13.7218 11.6592 13.7559 11.4958 13.8601 11.3825C13.9309 11.3058 15.6234 9.49251 17.7384 8.49667C17.9026 8.41917 18.0993 8.45751 18.2226 8.59167C18.2784 8.65251 19.4226 9.93751 19.1318 12.5958C20.0943 12.9708 21.0859 13.4267 22.0409 13.9692C24.3401 12.9358 26.9509 12.0058 29.7318 11.4442C29.8751 11.4158 30.0343 11.4675 30.1326 11.5842C30.2301 11.7008 30.2568 11.8617 30.2018 12.0033C29.1184 14.78 26.2134 17.7458 26.0901 17.8708C26.0059 17.9558 25.8909 17.9983 25.7709 17.9942C25.6518 17.9875 25.5417 17.9308 25.4668 17.8375C24.5334 16.6642 23.3134 15.6925 21.9976 14.9017C20.1851 15.7383 18.5801 16.6333 17.2609 17.4425C15.5776 20.07 13.0368 22.4825 10.8993 23.6333ZM22.9101 14.4967C23.9851 15.19 24.9859 16.005 25.8134 16.9533C26.5034 16.205 28.1593 14.3133 29.0984 12.435C26.8901 12.9433 24.8001 13.6792 22.9101 14.4967ZM18.9993 13.435C18.9718 13.5708 18.9401 13.71 18.9051 13.8517C18.7301 14.5508 18.4518 15.2692 18.0951 15.9858C19.0084 15.4642 20.0193 14.9258 21.1101 14.4042C20.4118 14.0342 19.6993 13.7125 18.9993 13.435ZM15.0401 11.3933C15.9659 11.575 17.1068 11.8717 18.3243 12.2983C18.4509 10.7625 18.0359 9.82167 17.7851 9.40501C16.6384 10.0033 15.6343 10.845 15.0401 11.3933Z" fill="#B71C1C"/>
  <path d="M15.0416 15.4167C15.0416 19.0667 12 21.9667 9.80828 24.0833C9.44162 24.4417 8.19995 24.5 8.19995 24.5C8.50828 24.1833 8.85828 23.85 9.23328 23.4917C11.3166 21.475 14.2083 18.7167 14.2083 15.4167C14.2083 11.5083 12.6333 9.96666 11.3916 8.73333C10.8416 8.175 10.375 7.64166 10.0916 6.99166L10.35 6.88333C10.6333 7.00833 10.9583 7.15 11.2083 7.25833C11.4083 7.55 11.675 7.83333 11.9833 8.14166C13.2583 9.41666 15.0416 11.1667 15.0416 15.4167Z" fill="#B71C1C"/>
  <path d="M35.7792 16.495C35.7792 16.495 35.275 16.5667 35.1333 16.5833C27.8333 17.3917 20.3 19.4917 15.9917 21.2167C14.4333 21.8417 12.8167 22.6 11.3417 23.45C11.3333 23.4583 11.325 23.4583 11.3083 23.4667C10.4417 23.9667 8.33333 25 6.625 25.9083C9.125 23.25 13.8083 21.2 15.675 20.45C19.9 18.7583 27.1583 16.7167 34.3 15.8417C33.4583 14.8583 31.4 12.775 27.35 11.225C24.9833 10.3083 21.3833 9.79165 18.2083 9.33332C13.1583 8.60832 10.2833 8.12499 10.0083 6.74999C9.95 6.47499 9.99167 6.19999 10.1167 5.93332C10.3917 6.38332 10.7833 6.69999 11.0417 6.88332C11.1667 6.96665 11.2583 7.01665 11.2917 7.03332L11.3 7.04165C12.4833 7.66665 15.675 8.12499 18.3333 8.50832C21.55 8.97499 25.1917 9.49999 27.65 10.4417C33.375 12.65 35.35 15.8083 35.4333 15.9417C35.5083 16.0667 35.7792 16.495 35.7792 16.495Z" fill="#B71C1C"/>
</svg>